<svg width="16" height="16" viewBox="0 0 16 16" fill="none" xmlns="http://www.w3.org/2000/svg">
<path d="M3.94183 5.27145H0.627097V15.2257H3.94183V5.27145ZM4.15277 2.19779C4.14272 1.22346 3.4396 0.480154 2.30455 0.480154C1.17955 0.480154 0.436249 1.22346 0.436249 2.19779C0.436249 3.15203 1.14942 3.91542 2.26437 3.91542H2.28446C3.4396 3.91542 4.16281 3.15203 4.15277 2.19779ZM15.8648 9.52033C15.8648 6.46676 14.2376 5.04042 12.0579 5.04042C10.27 5.04042 9.48647 6.03484 9.05455 6.71788H9.07464V5.27145H5.76995C5.76995 5.27145 5.81013 6.2056 5.76995 15.2257H9.07464V9.671C9.07464 9.36966 9.10478 9.07837 9.18513 8.85739C9.4262 8.26475 9.96862 7.65203 10.8827 7.65203C12.078 7.65203 12.5601 8.56609 12.5601 9.90203V15.2257H15.8648V9.52033Z" fill="white"/>
</svg>
